<svg xmlns="http://www.w3.org/2000/svg" width="36" height="36" viewBox="0 0 36 36">
  <path fill="#000" d="M5.8 12.1C5.8 10.6 7 9.4 8.5 9.4C10 9.4 11.2 10.6 11.2 12.1V23.9C11.2 25.4 10 26.6 8.5 26.6C7 26.6 5.8 25.4 5.8 23.9V12.1Z"/>
  <path fill="#000" d="M16.8 7.5C16.8 6 18 4.8 19.5 4.8C21 4.8 22.2 6 22.2 7.5V28.5C22.2 30 21 31.2 19.5 31.2C18 31.2 16.8 30 16.8 28.5V7.5Z"/>
  <circle fill="#000" cx="20.0" cy="16.6" r="5.6"/>
  <path fill="#000" d="M24.8 12.1C24.8 10.6 26 9.4 27.5 9.4C29 9.4 30.2 10.6 30.2 12.1V23.9C30.2 25.4 29 26.6 27.5 26.6C26 26.6 24.8 25.4 24.8 23.9V12.1Z"/>
</svg>
